# xmcd
#
# Track frame offsets:
#	150
#	13059
#	31531
#	48650
#	72773
#	89011
#	110570
#	135614
#	152687
#	175736
#	192712
#	208765
#	227818
#
# Disc length: 3264 seconds
# Revision: 1
# Processed by: cddbd v1.5.2PL0 Copyright (c) Steve Scherf et al.
# Submitted via: dBpowerAMP V12.0
#
DISCID=b40cbe0d
DTITLE=Dennis Jay - Western and Country
DYEAR=2016
DGENRE=Country
TTITLE0=Texas Eyes Shining in a Cowgirl's Eyes
TTITLE1=The Thorns of Your Roses
TTITLE2=Watch Over You Tonight
TTITLE3=Primicia (Volver a Visitar)
TTITLE4=Sweet Memory
TTITLE5=A Picture in My Wallet
TTITLE6=The Lights of Deadwood
TTITLE7=South of Seguin
TTITLE8=Right Up on the Edge
TTITLE9=My Baby's Arms
TTITLE10=A Cowboy Tune
TTITLE11=The Gamble
TTITLE12=Streets of Laredo
EXTD=
EXTT0=
EXTT1=
EXTT2=
EXTT3=
EXTT4=
EXTT5=
EXTT6=
EXTT7=
EXTT8=
EXTT9=
EXTT10=
EXTT11=
EXTT12=
PLAYORDER=
